<svg aria-hidden="true" style="position: absolute; width: 0; height: 0; overflow: hidden;" version="1.1" xmlns="http://www.w3.org/2000/svg" xmlns:xlink="http://www.w3.org/1999/xlink">
<defs>
<symbol id="icon-pajamas_close-1" viewBox="0 0 32 32">
<path d="M8.56 6.44c-0.284-0.265-0.66-0.409-1.049-0.402s-0.759 0.164-1.034 0.439c-0.275 0.275-0.432 0.646-0.439 1.034s0.137 0.765 0.402 1.049l7.44 7.44-7.44 7.44c-0.147 0.137-0.266 0.303-0.348 0.487s-0.126 0.383-0.13 0.584c-0.004 0.201 0.034 0.401 0.109 0.588s0.188 0.356 0.33 0.499c0.142 0.142 0.312 0.255 0.499 0.33s0.387 0.112 0.588 0.109 0.4-0.048 0.584-0.13c0.184-0.082 0.35-0.2 0.487-0.348l7.44-7.44 7.44 7.44c0.137 0.147 0.303 0.266 0.487 0.348s0.383 0.126 0.584 0.13 0.401-0.033 0.588-0.109c0.187-0.075 0.356-0.188 0.499-0.33s0.255-0.312 0.33-0.499c0.075-0.187 0.113-0.387 0.109-0.588s-0.048-0.4-0.13-0.584-0.2-0.35-0.348-0.487l-7.44-7.44 7.44-7.44c0.265-0.284 0.409-0.66 0.402-1.049s-0.164-0.759-0.439-1.034c-0.275-0.275-0.646-0.432-1.034-0.439s-0.765 0.137-1.049 0.402l-7.44 7.44-7.44-7.44z"></path>
</symbol>
<symbol id="menu-burger" viewBox="0 0 32 32">
<path d="M2.667 8c0-0.736 0.597-1.333 1.333-1.333h24c0.736 0 1.333 0.597 1.333 1.333s-0.597 1.333-1.333 1.333h-24c-0.736 0-1.333-0.597-1.333-1.333zM2.667 16c0-0.736 0.597-1.333 1.333-1.333h24c0.736 0 1.333 0.597 1.333 1.333s-0.597 1.333-1.333 1.333h-24c-0.736 0-1.333-0.597-1.333-1.333zM2.667 24c0-0.736 0.597-1.333 1.333-1.333h24c0.736 0 1.333 0.597 1.333 1.333s-0.597 1.333-1.333 1.333h-24c-0.736 0-1.333-0.597-1.333-1.333z"></path>
</symbol>
<symbol id="icon-Vector" viewBox="0 0 32 32">
<path d="M9.404 0.096c1.706-0.079 2.25-0.096 6.596-0.096s4.89 0.019 6.595 0.096c1.705 0.077 2.868 0.349 3.887 0.743 1.066 0.403 2.033 1.033 2.833 1.847 0.815 0.799 1.443 1.764 1.844 2.832 0.396 1.018 0.666 2.182 0.745 3.884 0.078 1.709 0.096 2.253 0.096 6.598 0 4.346-0.019 4.89-0.096 6.596-0.077 1.702-0.349 2.865-0.745 3.884-0.401 1.068-1.031 2.035-1.844 2.835-0.8 0.815-1.767 1.443-2.833 1.844-1.018 0.396-2.182 0.666-3.884 0.745-1.708 0.078-2.252 0.096-6.598 0.096s-4.89-0.019-6.596-0.096c-1.702-0.077-2.865-0.349-3.884-0.745-1.068-0.401-2.035-1.031-2.835-1.844-0.814-0.799-1.444-1.766-1.846-2.833-0.394-1.018-0.665-2.182-0.743-3.884-0.079-1.709-0.096-2.253-0.096-6.598 0-4.346 0.019-4.89 0.096-6.595s0.349-2.868 0.743-3.887c0.403-1.068 1.033-2.034 1.847-2.833 0.799-0.814 1.765-1.444 2.832-1.846 1.018-0.394 2.183-0.665 3.885-0.743zM22.465 2.976c-1.687-0.077-2.194-0.093-6.465-0.093s-4.778 0.016-6.465 0.093c-1.561 0.071-2.407 0.332-2.972 0.551-0.746 0.291-1.28 0.636-1.84 1.196-0.531 0.516-0.939 1.145-1.196 1.84-0.22 0.564-0.48 1.411-0.551 2.972-0.077 1.687-0.093 2.193-0.093 6.465s0.016 4.778 0.093 6.466c0.071 1.561 0.332 2.407 0.551 2.972 0.256 0.694 0.665 1.324 1.196 1.84 0.516 0.531 1.146 0.94 1.84 1.196 0.564 0.22 1.411 0.48 2.972 0.551 1.687 0.077 2.192 0.093 6.465 0.093s4.778-0.016 6.465-0.093c1.561-0.071 2.407-0.332 2.972-0.551 0.746-0.291 1.28-0.636 1.84-1.196 0.531-0.516 0.94-1.146 1.196-1.84 0.22-0.564 0.48-1.411 0.551-2.972 0.077-1.687 0.093-2.194 0.093-6.465s-0.016-4.778-0.093-6.465c-0.071-1.561-0.332-2.407-0.551-2.972-0.291-0.746-0.636-1.28-1.196-1.84-0.517-0.531-1.145-0.939-1.84-1.196-0.564-0.22-1.411-0.48-2.972-0.551zM13.956 20.932c1.141 0.475 2.412 0.539 3.596 0.181s2.206-1.115 2.893-2.143c0.687-1.028 0.996-2.262 0.873-3.492s-0.668-2.38-1.543-3.252c-0.558-0.558-1.233-0.985-1.976-1.251s-1.536-0.363-2.321-0.286c-0.785 0.078-1.544 0.328-2.221 0.734s-1.255 0.957-1.694 1.613c-0.438 0.656-0.726 1.401-0.842 2.182s-0.057 1.577 0.172 2.332c0.229 0.755 0.623 1.45 1.152 2.035s1.183 1.045 1.912 1.347zM10.185 10.185c0.764-0.764 1.67-1.369 2.668-1.783s2.067-0.626 3.147-0.626c1.080 0 2.149 0.213 3.147 0.626s1.904 1.019 2.668 1.783c0.764 0.764 1.369 1.67 1.783 2.668s0.626 2.067 0.626 3.147c0 1.080-0.213 2.149-0.626 3.147s-1.019 1.904-1.783 2.668c-1.542 1.542-3.634 2.409-5.815 2.409s-4.273-0.866-5.815-2.409c-1.542-1.542-2.409-3.634-2.409-5.815s0.866-4.273 2.409-5.815zM26.048 9.001c0.189-0.179 0.341-0.393 0.445-0.631s0.161-0.495 0.165-0.755c0.004-0.26-0.045-0.518-0.142-0.759s-0.243-0.46-0.427-0.644c-0.184-0.184-0.403-0.329-0.644-0.427s-0.499-0.146-0.759-0.142-0.517 0.060-0.755 0.165c-0.238 0.105-0.453 0.256-0.631 0.446-0.347 0.368-0.537 0.857-0.53 1.363s0.212 0.989 0.569 1.347c0.358 0.358 0.841 0.562 1.347 0.569s0.995-0.183 1.363-0.53z"></path>
</symbol>
<symbol id="icon-facebook" viewBox="0 0 32 32">
<path d="M16 0c-8.8 0-16 7.212-16 16.094 0 8.031 5.856 14.697 13.504 15.901v-11.243h-4.064v-4.658h4.064v-3.55c0-4.032 2.384-6.248 6.048-6.248 1.744 0 3.568 0.305 3.568 0.305v3.967h-2.016c-1.984 0-2.608 1.237-2.608 2.506v3.020h4.448l-0.72 4.658h-3.728v11.243c3.77-0.598 7.204-2.529 9.68-5.445s3.833-6.625 3.824-10.456c0-8.882-7.2-16.094-16-16.094z"></path>
</symbol>
</defs>
</svg>
